<svg xmlns="http://www.w3.org/2000/svg" viewBox="0 0 20 20"><path d="M5.19 6.73h-2.4a.83.83 0 00-.79.88v4.78a.83.83 0 00.79.88h2.4l3.09 2.64a.8.8 0 001.14-.79V4.88a.8.8 0 00-1.14-.79z" fill="none" stroke="currentColor" stroke-miterlimit="10" stroke-width="2"/><path d="M13.07 12.76a.93.93 0 01-.5-.14 1 1 0 01-.36-1.36 2.57 2.57 0 000-2.52 1 1 0 011.73-1 4.49 4.49 0 01.6 2.26 4.56 4.56 0 01-.6 2.27 1 1 0 01-.87.49z" fill="currentColor"/><path d="M15.51 4A8.23 8.23 0 0118 10a8.23 8.23 0 01-2.49 6" stroke-linecap="round" fill="none" stroke="currentColor" stroke-miterlimit="10" stroke-width="2"/></svg>
