<svg xmlns="http://www.w3.org/2000/svg" viewBox="0 0 20 20"><path d="m5.19 6.73h-2.4a.83.83 0 0 0 -.79.88v4.78a.83.83 0 0 0 .79.88h2.4l3.09 2.64a.8.8 0 0 0 1.14-.79v-10.24a.8.8 0 0 0 -1.14-.79z" fill="none" stroke="#203131" stroke-miterlimit="10" class="stroke" stroke-width="2"/><path d="m13.07 12.76a.93.93 0 0 1 -.5-.14 1 1 0 0 1 -.36-1.36 2.57 2.57 0 0 0 0-2.52 1 1 0 0 1 1.73-1 4.49 4.49 0 0 1 .6 2.26 4.56 4.56 0 0 1 -.6 2.27 1 1 0 0 1 -.87.49z" fill="currentColor"/><path d="m15.51 4a8.23 8.23 0 0 1 2.49 6 8.23 8.23 0 0 1 -2.49 6" fill="none" stroke="#203131" stroke-linecap="round" stroke-miterlimit="10" class="stroke" stroke-width="2"/></svg>
