<svg xmlns="http://www.w3.org/2000/svg" viewBox="0 0 20 20"><g fill="none" stroke="#203131" stroke-linejoin="round" class="stroke" stroke-width="2"><g stroke-linecap="round"><path d="m8.8 14.56h-2.8a1.31 1.31 0 0 0 -1.31 1.31 1.31 1.31 0 0 0 1.31 1.31h4.84l5.85-3"/><path d="m11.55 13-2 1.15a1.24 1.24 0 0 1 -1.65-.56 1.25 1.25 0 0 1 .34-1.72l2.81-1.69"/><path d="m11.18 10.18h5.5"/></g><path d="m13.29 6.47a3 3 0 0 0 .94-2.95l-.06-.15c0-.05 0 0 0 0l-.17-.07a3 3 0 0 0 -3 .94 3 3 0 0 0 -.93 3c0 .09 0 0 .06.14l.15.07a3 3 0 0 0 3.01-.98z"/><path d="m10.03 11.18v-5.49"/><path d="m9 4.23a3 3 0 0 0 -3-.93l-.14.05s0 0 0 0l-.08.16a3 3 0 0 0 .94 3 3 3 0 0 0 3 .94c.09 0 .05 0 .15-.07s0 0 .07-.15a3 3 0 0 0 -.94-3z"/></g></svg>
