<svg id="Designs" xmlns="http://www.w3.org/2000/svg" viewBox="0 0 20 20"><defs><style>.cls-1,
	.cls-2 {
		fill: none;
		stroke: currentColor;
		stroke-linejoin: round;
		stroke-width: 2px;
	}

	.cls-1 {
		stroke-linecap: round;
	}
</style></defs><title>Case Study</title><path class="cls-1" d="M8.8,14.56H6a1.31,1.31,0,0,0-1.31,1.31h0A1.31,1.31,0,0,0,6,17.18h4.84l5.85-3"/><path class="cls-1" d="M11.55,13l-2,1.15a1.24,1.24,0,0,1-1.65-.56h0a1.25,1.25,0,0,1,.34-1.72l2.81-1.69"/><line class="cls-1" x1="11.18" y1="10.18" x2="16.68" y2="10.18"/><path class="cls-2" d="M13.29,6.47a3,3,0,0,0,.94-2.95l-.06-.15h0c0-.05,0,0,0,0L14,3.3a3,3,0,0,0-3,.94,3,3,0,0,0-.93,3h0c0,.09,0,0,.06.14l.15.07h0A3,3,0,0,0,13.29,6.47Z"/><line class="cls-2" x1="10.03" y1="11.18" x2="10.03" y2="5.69"/><path class="cls-2" d="M9,4.23A3,3,0,0,0,6,3.3l-.14.05s0,0,0,0h0l-.08.16a3,3,0,0,0,.94,3,3,3,0,0,0,3,.94h0c.09,0,.05,0,.15-.07s0,0,.07-.15h0A3,3,0,0,0,9,4.23Z"/></svg>
