<svg id="Designs" xmlns="http://www.w3.org/2000/svg" viewBox="0 0 20 20"><defs><style>.cls-1{fill:#231f20;}</style></defs><title>Format</title><polygon class="cls-1" points="8.42 16.84 0 16.84 0 7.29 6.58 7.29 6.58 9.4 2.1 9.4 2.1 14.74 8.42 14.74 8.42 16.84"/><path class="cls-1" d="M13.79,20A6.21,6.21,0,1,1,20,13.79,6.22,6.22,0,0,1,13.79,20Zm0-10.32a4.11,4.11,0,1,0,4.1,4.11A4.12,4.12,0,0,0,13.79,9.68Z"/><polygon class="cls-1" points="11.7 0 9.74 0 4.95 9.21 5.86 10.79 10.04 10.79 10.04 8.68 7.59 8.68 10.72 2.68 14.08 9.12 15.94 8.15 11.7 0"/></svg>