<svg id="Designs" xmlns="http://www.w3.org/2000/svg" viewBox="0 0 20.88 20.88"><defs><style>.cls-1{fill:#231f20;}</style></defs><title>Goal</title><path class="cls-1" d="M12.55,7.16l-.1-.1L9.82,9.69v1.37h1.37l2.63-2.63-.11-.11,2.51.84L20.88,4.5,17.5,3.37,16.38,0,11.72,4.66ZM16,4.9l1.32.44-1.6,1.6L14.37,6.5l-.44-1.32,1.6-1.6Z"/><path class="cls-1" d="M9,7.7,11,5.79a5.39,5.39,0,1,0,4.26,5.27,4.91,4.91,0,0,0-.14-1.16l-1.85,1.84,0,0A3.45,3.45,0,1,1,9,7.7Z"/><path class="cls-1" d="M17.67,10.47c0,.19,0,.39,0,.59A7.88,7.88,0,1,1,9.82,3.18c.2,0,.41,0,.61,0l1.69-1.68a9.23,9.23,0,0,0-2.3-.29,9.82,9.82,0,1,0,9.81,9.82,10,10,0,0,0-.27-2.28Z"/></svg>