<svg xmlns="http://www.w3.org/2000/svg" viewBox="0 0 20.88 20.88" xmlns="http://www.w3.org/2000/svg"><g fill="currentColor"><path d="m12.55 7.16-.1-.1-2.63 2.63v1.37h1.37l2.63-2.63-.11-.11 2.51.84 4.66-4.66-3.38-1.13-1.12-3.37-4.66 4.66zm3.45-2.26 1.32.44-1.6 1.6-1.35-.44-.44-1.32 1.6-1.6z"/><path d="m9 7.7 2-1.91a5.39 5.39 0 1 0 4.26 5.27 4.91 4.91 0 0 0 -.14-1.16l-1.85 1.84a3.45 3.45 0 1 1 -4.27-4.04z"/><path d="m17.67 10.47v.59a7.88 7.88 0 1 1 -7.85-7.88h.61l1.69-1.68a9.23 9.23 0 0 0 -2.3-.29 9.82 9.82 0 1 0 9.81 9.82 10 10 0 0 0 -.27-2.28z"/></g></svg>
