<svg xmlns="http://www.w3.org/2000/svg">
	<symbol id="search" width="16.191" height="16.183" viewBox="0 0 16.191 16.183">
		<path d="M13.608,12.459l.892.892a1.237,1.237,0,0,1,.924.357l2.432,2.432a1.216,1.216,0,0,1-1.719,1.719l-2.432-2.432a1.216,1.216,0,0,1-.357-.924l-.892-.892A6.486,6.486,0,1,1,13.6,12.467Zm-5.124.892A4.864,4.864,0,1,0,3.62,8.486,4.864,4.864,0,0,0,8.484,13.351Z" transform="translate(-1.992 -2.002)" fill="currentColor"/>
	</symbol>
	<symbol id="add" width="12" height="12" viewBox="0 0 12 12">
		<path d="M17,11a1,1,0,0,1,0,2H13v4a1,1,0,0,1-2,0V13H7a1,1,0,0,1,0-2h4V7a1,1,0,0,1,2,0v4Z" transform="translate(-6 -6)" fill="currentColor" fill-rule="evenodd"/>
	</symbol>
	<symbol id="arrow-n" width="13.136" height="13.136" viewBox="0 0 13.136 13.136">
		<path d="M16.993,5.842l-6.036,6.036A.834.834,0,1,1,9.79,10.7l6.02-6.028H10.359a.834.834,0,0,1,0-1.667h7.468a.834.834,0,0,1,.834.834v7.744a.834.834,0,0,1-1.667,0Z" transform="translate(-8.835 11.074) rotate(-45)" fill="currentColor"/>
	</symbol>
</svg>
