<svg xmlns="http://www.w3.org/2000/svg" viewBox="0 0 28 28"><g fill="none" stroke="currentColor" stroke-linecap="round" stroke-linejoin="round" class="stroke" stroke-width="2"><circle cx="13.98" cy="12.02" r="4.98"/><path d="M14,17c-.69,0-1.66-2.23-1.66-5s1-5,1.66-5"/><path d="M14,7.05c.68,0,1.66,2.22,1.66,5s-1,5-1.66,5"/><line x1="9" y1="12.02" x2="18.95" y2="12.02"/><path d="M22.76,3H5.23A2.21,2.21,0,0,0,3,5.2V18.69a2.21,2.21,0,0,0,2.23,2.19H8.5v3.79l.67.33,6.3-4.12h7.29A2.21,2.21,0,0,0,25,18.69V5.2A2.21,2.21,0,0,0,22.76,3Z"/></g></svg>