<svg xmlns="http://www.w3.org/2000/svg" width="25.16" height="23.9" viewBox="0 0 25.16 23.9"><path d="M13.21 5.24v4.2h1.85c-.14-2.13-.95-3.68-1.85-4.2zM11.95 14.89v-4.2H10.1c.14 2.13.95 3.72 1.85 4.2zM13.21 10.69v4.2c.9-.51 1.71-2.07 1.85-4.2zM11.95 9.41v-4.2c-.9.51-1.71 2.07-1.85 4.2zM16.31 9.41h1.23a5 5 0 00-2.13-3.53 8.66 8.66 0 01.9 3.53z" fill="currentColor"/><path d="M22.01 0H3.14A3.15 3.15 0 000 3.15v13.83a3.15 3.15 0 003.14 3.15H8.8v3.14a.63.63 0 00.63.63.62.62 0 00.32-.09l6.15-3.68h6.11a3.16 3.16 0 003.15-3.15V3.15A3.15 3.15 0 0022.01 0zm-9.43 16.35a6.29 6.29 0 116.28-6.28 6.28 6.28 0 01-6.28 6.28z" fill="currentColor"/><path d="M16.31 10.69a8.57 8.57 0 01-.9 3.52 5 5 0 002.13-3.52zM8.84 10.69H7.66a5 5 0 002.13 3.52 8.57 8.57 0 01-.95-3.52zM8.84 9.41a8.82 8.82 0 01.9-3.53 5 5 0 00-2.08 3.53z" fill="currentColor"/></svg>
