<svg xmlns="http://www.w3.org/2000/svg" viewBox="0 0 40 40"><g fill="none" stroke="currentColor" stroke-linecap="round" stroke-linejoin="round" class="stroke" stroke-width="2"><circle cx="19.97" cy="16.94" r="7.69"/><path d="M20,24.63c-1.06,0-2.57-3.44-2.57-7.69S18.91,9.25,20,9.25"/><path d="M20,9.25c1.06,0,2.56,3.44,2.56,7.69S21,24.63,20,24.63"/><line x1="12.27" y1="16.94" x2="27.66" y2="16.94"/><path d="M33.55,3H6.44A3.41,3.41,0,0,0,3,6.39V27.25a3.41,3.41,0,0,0,3.44,3.38H11.5v5.85l1,.52,9.74-6.37H33.55A3.41,3.41,0,0,0,37,27.25V6.39A3.41,3.41,0,0,0,33.55,3Z"/></g></svg>