<svg viewBox="0 0 24 24" xmlns="http://www.w3.org/2000/svg"><path id="language-small" d="m12 1a11 11 0 1 0 11 11 11 11 0 0 0 -11-11zm9 10h-4.66a20.43 20.43 0 0 0 -1.73-7.63 9 9 0 0 1 6.39 7.63zm-8.95 10c-.68-.42-2.15-3.48-2.35-8h4.64c-.2 4.54-1.69 7.62-2.29 8zm-2.35-10c.2-4.58 1.69-7.65 2.3-8 .68.42 2.15 3.47 2.35 8zm-.28-7.65a20.63 20.63 0 0 0 -1.72 7.65h-4.64a9 9 0 0 1 6.36-7.65zm-6.36 9.65h4.64a20.73 20.73 0 0 0 1.72 7.64 9 9 0 0 1 -6.36-7.64zm11.55 7.64a20.53 20.53 0 0 0 1.73-7.64h4.66a9 9 0 0 1 -6.39 7.62z" fill="currentColor"/></svg>
