<svg xmlns="http://www.w3.org/2000/svg" viewBox="0 0 20 20"><path d="m4.48 4h10.81a1 1 0 0 1 1 1v7a0 0 0 0 1 0 0h-12.81a0 0 0 0 1 0 0v-7a1 1 0 0 1 1-1z" fill="none" stroke="#203131" stroke-miterlimit="10" class="stroke" stroke-width="2"/><path d="m16.7 16h-13.63a1.12 1.12 0 0 1 -1-1.62l1.41-2.38h12.81l1.36 2.38a1.12 1.12 0 0 1 -.95 1.62z" fill="none" stroke="#203131" stroke-miterlimit="10" class="stroke" stroke-width="2"/><g fill="currentColor"><circle cx="9.93" cy="7.18" r="1.58"/><path d="m6.78 12.54a3.16 3.16 0 0 1 6.31 0"/></g></svg>
