<svg xmlns="http://www.w3.org/2000/svg" viewBox="0 0 20 20"><path d="m17.75 9c-.13-.08-1.14-.69-1.54-.87l-.49-1.2c.14-.4.43-1.51.48-1.7a.55.55 0 0 0 -.15-.5l-.78-.73a.54.54 0 0 0 -.5-.14c-.14 0-1.28.32-1.7.48l-1.2-.5c-.17-.38-.76-1.37-.87-1.54a.53.53 0 0 0 -.45-.3h-1.1a.52.52 0 0 0 -.45.25c-.08.13-.69 1.14-.87 1.54l-1.2.49c-.4-.14-1.51-.43-1.7-.48a.55.55 0 0 0 -.5.15l-.73.78a.54.54 0 0 0 -.14.5c0 .14.32 1.28.48 1.7l-.5 1.2c-.38.17-1.37.76-1.54.87a.53.53 0 0 0 -.3.45v1.1a.53.53 0 0 0 .25.45c.13.08 1.14.69 1.54.87l.49 1.2c-.14.4-.43 1.51-.48 1.7a.55.55 0 0 0 .15.5l.77.78a.54.54 0 0 0 .5.14c.15 0 1.28-.32 1.7-.48l1.2.5c.18.38.76 1.36.87 1.53a.54.54 0 0 0 .46.26h1.1a.53.53 0 0 0 .45-.25c.08-.13.69-1.14.87-1.54l1.2-.49c.4.14 1.51.43 1.7.48a.55.55 0 0 0 .5-.15l.78-.77a.54.54 0 0 0 .14-.5c0-.15-.32-1.28-.48-1.7l.5-1.2c.38-.18 1.36-.76 1.53-.87a.54.54 0 0 0 .26-.46v-1.1a.52.52 0 0 0 -.25-.45zm-7.75 3a2 2 0 1 1 2-2 2 2 0 0 1 -2 2z" fill="none" stroke="#203131" stroke-linecap="round" stroke-linejoin="round" class="stroke" stroke-width="2"/></svg>
