<svg xmlns="http://www.w3.org/2000/svg" viewBox="0 0 20 20"><path d="m4 6h12a1 1 0 0 1 1 1v9a0 0 0 0 1 0 0h-14a0 0 0 0 1 0 0v-9a1 1 0 0 1 1-1z" fill="none" stroke="#203131" stroke-miterlimit="10" class="stroke" stroke-width="2"/><path d="m6.89 5.5v-1.42a1 1 0 0 1 .87-1.08h4.48a1 1 0 0 1 .87 1.08v1.42" fill="none" stroke="#203131" stroke-miterlimit="10" class="stroke" stroke-width="2"/><g fill="currentColor"><path d="m4 9.64h12v2h-12z"/><path d="m6 8.64h2v4h-2z"/><path d="m12 8.64h2v4h-2z"/></g></svg>
